<svg width="1096" height="595" viewBox="0 0 1096 595" fill="none" xmlns="http://www.w3.org/2000/svg">
  <defs>
    <path id="wave-contour" d="M516.0 595.0 C526.7 576.3 537.3 557.7 548.0 539.0 C560.7 516.7 573.3 481.7 586.0 472.0 C614.0 450.7 642.0 454.6 670.0 446.0 C686.7 440.9 703.3 441.0 720.0 431.0 C733.3 423.0 746.7 410.5 760.0 392.0 C773.3 373.5 786.7 348.7 800.0 320.0 C816.7 284.1 833.3 225.6 850.0 198.0 C876.0 154.9 902.0 119.3 928.0 108.0 C958.0 95.0 988.0 112.9 1018.0 125.0 C1044.0 135.5 1070.0 159.0 1096.0 176.0"/>
  </defs>
  <g stroke="#fff" stroke-width="1.32" stroke-linecap="round" stroke-linejoin="round">
    <use href="#wave-contour"/>
    <use href="#wave-contour" transform="translate(-0.9 11.5)"/>
    <use href="#wave-contour" transform="translate(-1.8 23)"/>
    <use href="#wave-contour" transform="translate(-2.7 34.5)"/>
    <use href="#wave-contour" transform="translate(-3.6 46)"/>
    <use href="#wave-contour" transform="translate(-4.5 57.5)"/>
    <use href="#wave-contour" transform="translate(-5.4 69)"/>
    <use href="#wave-contour" transform="translate(-6.3 80.5)"/>
    <use href="#wave-contour" transform="translate(-7.2 92)"/>
    <use href="#wave-contour" transform="translate(-8.1 103.5)"/>
    <use href="#wave-contour" transform="translate(-9 115)"/>
    <use href="#wave-contour" transform="translate(-9.9 126.5)"/>
    <use href="#wave-contour" transform="translate(-10.8 138)"/>
    <use href="#wave-contour" transform="translate(-11.7 149.5)"/>
    <use href="#wave-contour" transform="translate(-12.6 161)"/>
    <use href="#wave-contour" transform="translate(-13.5 172.5)"/>
    <use href="#wave-contour" transform="translate(-14.4 184)"/>
    <use href="#wave-contour" transform="translate(-15.3 195.5)"/>
    <use href="#wave-contour" transform="translate(-16.2 207)"/>
    <use href="#wave-contour" transform="translate(-17.1 218.5)"/>
    <use href="#wave-contour" transform="translate(-18 230)"/>
    <use href="#wave-contour" transform="translate(-18.9 241.5)"/>
    <use href="#wave-contour" transform="translate(-19.8 253)"/>
    <use href="#wave-contour" transform="translate(-20.7 264.5)"/>
    <use href="#wave-contour" transform="translate(-21.6 276)"/>
    <use href="#wave-contour" transform="translate(-22.5 287.5)"/>
    <use href="#wave-contour" transform="translate(-23.4 299)"/>
    <use href="#wave-contour" transform="translate(-24.3 310.5)"/>
    <use href="#wave-contour" transform="translate(-25.2 322)"/>
    <use href="#wave-contour" transform="translate(-26.1 333.5)"/>
    <use href="#wave-contour" transform="translate(-27 345)"/>
    <use href="#wave-contour" transform="translate(-27.9 356.5)"/>
    <use href="#wave-contour" transform="translate(-28.8 368)"/>
    <use href="#wave-contour" transform="translate(-29.7 379.5)"/>
    <use href="#wave-contour" transform="translate(-30.6 391)"/>
    <use href="#wave-contour" transform="translate(-31.5 402.5)"/>
    <use href="#wave-contour" transform="translate(-32.4 414)"/>
    <use href="#wave-contour" transform="translate(-33.3 425.5)"/>
    <use href="#wave-contour" transform="translate(-34.2 437)"/>
    <use href="#wave-contour" transform="translate(-35.1 448.5)"/>
    <use href="#wave-contour" transform="translate(-36 460)"/>
    <use href="#wave-contour" transform="translate(-36.9 471.5)"/>
    <use href="#wave-contour" transform="translate(-37.8 483)"/>
    <use href="#wave-contour" transform="translate(-38.7 494.5)"/>
    <use href="#wave-contour" transform="translate(-39.6 506)"/>
  </g>
</svg>
