<svg width="1096" height="595" viewBox="0 0 1096 595" fill="none" xmlns="http://www.w3.org/2000/svg">
  <g stroke="#fff" stroke-width="1.32" stroke-linecap="round" stroke-linejoin="round">
    <path d="M516.0 595.0 C526.7 576.3 537.3 557.7 548.0 539.0 C560.7 516.7 573.3 481.7 586.0 472.0 C614.0 450.7 642.0 454.6 670.0 446.0 C686.7 440.9 703.3 441.0 720.0 431.0 C733.3 423.0 746.7 410.5 760.0 392.0 C773.3 373.5 786.7 348.7 800.0 320.0 C816.7 284.1 833.3 225.6 850.0 198.0 C876.0 154.9 902.0 119.3 928.0 108.0 C958.0 95.0 988.0 112.9 1018.0 125.0 C1044.0 135.5 1070.0 159.0 1096.0 176.0"/>
    <path d="M515.1 606.5 C525.8 587.6 536.4 568.9 547.1 550.0 C559.9 527.5 572.5 492.3 585.2 482.4 C613.2 460.6 641.3 464.1 669.3 455.1 C686.0 449.7 702.6 449.5 719.4 439.3 C732.7 431.1 746.1 418.4 759.4 399.7 C772.7 381.0 786.1 356.0 799.4 327.1 C816.2 290.9 832.8 232.2 849.5 204.4 C875.5 160.9 901.6 124.9 927.6 113.2 C957.6 99.8 987.7 117.3 1017.7 129.0 C1043.7 139.2 1069.7 162.4 1095.8 179.0"/>
    <path d="M514.2 618.0 C524.9 599.0 535.6 580.0 546.3 561.0 C559.0 538.3 571.6 502.9 584.4 492.7 C612.4 470.6 640.5 473.6 668.6 464.1 C685.3 458.5 702.0 458.1 718.7 447.6 C732.0 439.2 745.5 426.3 758.8 407.4 C772.1 388.5 785.6 363.3 798.9 334.2 C815.6 297.8 832.3 238.8 849.0 210.7 C875.1 166.9 901.1 130.5 927.2 118.5 C957.2 104.7 987.3 121.8 1017.4 133.1 C1043.4 142.9 1069.5 165.7 1095.5 182.1"/>
    <path d="M513.3 629.5 C524.0 610.3 534.7 591.2 545.4 571.9 C558.2 549.0 570.8 513.4 583.6 503.1 C611.7 480.5 639.8 483.1 667.9 473.2 C684.6 467.3 701.3 466.6 718.1 455.9 C731.4 447.2 744.8 434.1 758.2 415.0 C771.5 395.9 785.0 370.5 798.3 341.3 C815.1 304.6 831.8 245.4 848.5 217.1 C874.6 172.8 900.7 136.1 926.8 123.7 C956.9 109.5 987.0 126.2 1017.1 137.1 C1043.1 146.6 1069.2 169.1 1095.3 185.1"/>
    <path d="M512.4 641.0 C523.2 621.6 533.8 602.3 544.6 582.9 C557.3 559.8 570.0 524.0 582.8 513.5 C610.9 490.4 639.0 492.6 667.2 482.2 C683.9 476.1 700.6 475.2 717.4 464.1 C730.8 455.3 744.2 442.0 757.6 422.7 C771.0 403.4 784.4 377.8 797.8 348.3 C814.6 311.5 831.2 252.0 848.0 223.4 C874.1 178.8 900.2 141.8 926.4 129.0 C956.5 114.3 986.6 130.6 1016.7 141.1 C1042.8 150.3 1068.9 172.4 1095.1 188.1"/>
    <path d="M511.5 652.5 C522.3 632.9 532.9 613.5 543.7 593.9 C556.5 570.6 569.2 534.6 581.9 523.9 C610.1 500.3 638.3 502.0 666.5 491.3 C683.3 484.9 700.0 483.7 716.8 472.4 C730.1 463.4 743.6 449.9 757.0 430.4 C770.4 410.9 783.9 385.1 797.2 355.4 C814.0 318.3 830.7 258.6 847.5 229.8 C873.7 184.8 899.8 147.4 925.9 134.2 C956.1 119.2 986.3 135.0 1016.4 145.1 C1042.6 153.9 1068.7 175.8 1094.8 191.1"/>
    <path d="M510.6 664.0 C521.4 644.3 532.1 624.6 542.8 604.9 C555.6 581.4 568.3 545.2 581.1 534.2 C609.3 510.3 637.5 511.5 665.7 500.3 C682.6 493.7 699.3 492.2 716.1 480.7 C729.5 471.5 743.0 457.8 756.4 438.1 C769.8 418.4 783.3 392.4 796.7 362.5 C813.5 325.1 830.2 265.2 847.0 236.1 C873.2 190.8 899.4 153.0 925.5 139.5 C955.7 124.0 985.9 139.5 1016.1 149.2 C1042.3 157.6 1068.4 179.1 1094.6 194.2"/>
    <path d="M509.7 675.5 C520.5 655.6 531.2 635.8 542.0 615.9 C554.8 592.1 567.5 555.7 580.3 544.6 C608.6 520.2 636.8 521.0 665.0 509.4 C681.9 502.5 698.6 500.8 715.5 489.0 C728.9 479.6 742.4 465.7 755.8 445.8 C769.2 425.9 782.7 399.7 796.1 369.6 C813.0 332.0 829.7 271.8 846.5 242.5 C872.7 196.8 898.9 158.6 925.1 144.7 C955.4 128.8 985.6 143.9 1015.8 153.2 C1042.0 161.3 1068.2 182.5 1094.3 197.2"/>
    <path d="M508.8 687.0 C519.6 666.9 530.3 646.9 541.1 626.9 C554.0 602.9 566.7 566.3 579.5 555.0 C607.8 530.1 636.1 530.5 664.3 518.4 C681.2 511.3 698.0 509.3 714.8 497.3 C728.2 487.7 741.8 473.5 755.2 453.4 C768.6 433.3 782.1 407.0 795.6 376.7 C812.4 338.8 829.2 278.4 846.0 248.8 C872.3 202.8 898.5 164.2 924.7 150.0 C955.0 133.7 985.2 148.3 1015.5 157.2 C1041.7 165.0 1067.9 185.8 1094.1 200.2"/>
    <path d="M507.9 698.5 C518.7 678.2 529.4 658.1 540.3 637.8 C553.1 613.7 565.9 576.9 578.7 565.4 C607.0 540.1 635.3 540.0 663.6 527.5 C680.5 520.1 697.3 517.9 714.2 505.6 C727.6 495.7 741.1 481.4 754.6 461.1 C768.0 440.8 781.6 414.2 795.0 383.8 C811.9 345.7 828.7 285.0 845.5 255.2 C871.8 208.7 898.0 169.8 924.3 155.2 C954.6 138.5 984.9 152.8 1015.2 161.3 C1041.4 168.7 1067.6 189.2 1093.9 203.3"/>
    <path d="M507.0 710.0 C517.8 689.6 528.6 669.2 539.4 648.8 C552.3 624.5 565.0 587.5 577.9 575.7 C606.2 550.0 634.6 549.5 662.9 536.5 C679.8 528.8 696.6 526.4 713.5 513.8 C727.0 503.8 740.5 489.3 754.0 468.8 C767.4 448.3 781.0 421.5 794.5 390.8 C811.3 352.5 828.1 291.6 845.0 261.5 C871.3 214.7 897.6 175.4 923.9 160.5 C954.2 143.4 984.5 157.2 1014.8 165.3 C1041.1 172.4 1067.4 192.6 1093.6 206.3"/>
    <path d="M506.1 721.5 C516.9 700.9 527.7 680.4 538.5 659.8 C551.4 635.3 564.2 598.0 577.1 586.1 C605.5 559.9 633.8 559.0 662.2 545.6 C679.1 537.6 695.9 534.9 712.9 522.1 C726.3 511.9 739.9 497.2 753.4 476.5 C766.9 455.8 780.4 428.8 793.9 397.9 C810.8 359.3 827.6 298.2 844.5 267.9 C870.9 220.7 897.2 181.0 923.5 165.7 C953.8 148.2 984.2 161.6 1014.5 169.3 C1040.8 176.1 1067.1 195.9 1093.4 209.3"/>
    <path d="M505.2 733.0 C516.1 712.2 526.8 691.6 537.7 670.8 C550.6 646.0 563.4 608.6 576.3 596.5 C604.7 569.8 633.1 568.5 661.5 554.6 C678.4 546.4 695.3 543.5 712.2 530.4 C725.7 520.0 739.3 505.1 752.8 484.2 C766.3 463.3 779.9 436.1 793.3 405.0 C810.3 366.2 827.1 304.8 844.0 274.3 C870.4 226.7 896.7 186.7 923.1 171.0 C953.5 153.0 983.8 166.0 1014.2 173.3 C1040.5 179.8 1066.8 199.3 1093.2 212.3"/>
    <path d="M504.3 744.5 C515.2 723.5 526.0 702.7 536.8 681.8 C549.7 656.8 562.5 619.2 575.4 606.9 C603.9 579.8 632.3 578.0 660.8 563.7 C677.8 555.2 694.6 552.0 711.6 538.7 C725.1 528.1 738.7 512.9 752.2 491.8 C765.7 470.8 779.3 443.4 792.8 412.1 C809.7 373.0 826.6 311.4 843.5 280.6 C869.9 232.7 896.3 192.3 922.7 176.2 C953.1 157.9 983.5 170.5 1013.9 177.4 C1040.2 183.5 1066.6 202.6 1092.9 215.4"/>
    <path d="M503.4 756.0 C514.3 734.9 525.1 713.9 536.0 692.7 C548.9 667.6 561.7 629.8 574.6 617.2 C603.1 589.7 631.6 587.4 660.1 572.7 C677.1 564.0 693.9 560.6 710.9 547.0 C724.4 536.2 738.1 520.8 751.6 499.5 C765.1 478.2 778.7 450.6 792.2 419.2 C809.2 379.8 826.1 318.0 843.0 287.0 C869.4 238.6 895.9 197.9 922.2 181.5 C952.7 162.7 983.1 174.9 1013.6 181.4 C1040.0 187.2 1066.3 206.0 1092.7 218.4"/>
    <path d="M502.5 767.5 C513.4 746.2 524.2 725.0 535.1 703.7 C548.0 678.4 560.9 640.3 573.8 627.6 C602.3 599.6 630.9 596.9 659.4 581.8 C676.4 572.8 693.3 569.1 710.3 555.3 C723.8 544.2 737.4 528.7 751.0 507.2 C764.5 485.7 778.2 457.9 791.7 426.3 C808.7 386.7 825.6 324.5 842.5 293.3 C869.0 244.6 895.4 203.5 921.8 186.7 C952.3 167.5 982.8 179.3 1013.3 185.4 C1039.7 190.8 1066.1 209.3 1092.4 221.4"/>
    <path d="M501.6 779.0 C512.5 757.5 523.3 736.2 534.2 714.7 C547.2 689.1 560.1 650.9 573.0 638.0 C601.6 609.6 630.1 606.4 658.7 590.8 C675.7 581.6 692.6 577.6 709.6 563.6 C723.2 552.3 736.8 536.6 750.4 514.9 C763.9 493.2 777.6 465.2 791.1 433.4 C808.1 393.5 825.0 331.1 842.0 299.7 C868.5 250.6 895.0 209.1 921.4 192.0 C951.9 172.4 982.5 183.8 1013.0 189.5 C1039.4 194.5 1065.8 212.7 1092.2 224.5"/>
    <path d="M500.7 790.5 C511.6 768.8 522.5 747.3 533.4 725.7 C546.4 699.9 559.2 661.5 572.2 648.3 C600.8 619.5 629.4 615.9 658.0 599.9 C675.0 590.4 691.9 586.2 709.0 571.8 C722.5 560.4 736.2 544.5 749.8 522.6 C763.3 500.7 777.0 472.5 790.6 440.4 C807.6 400.4 824.5 337.7 841.5 306.0 C868.0 256.6 894.5 214.7 921.0 197.2 C951.6 177.2 982.1 188.2 1012.6 193.5 C1039.1 198.2 1065.5 216.0 1092.0 227.5"/>
    <path d="M499.8 802.0 C510.7 780.2 521.6 758.5 532.5 736.7 C545.5 710.7 558.4 672.1 571.4 658.7 C600.0 629.4 628.6 625.4 657.2 609.0 C674.3 599.2 691.3 594.7 708.3 580.1 C721.9 568.5 735.6 552.3 749.2 530.2 C762.8 508.2 776.4 479.8 790.0 447.5 C807.1 407.2 824.0 344.3 841.0 312.4 C867.6 262.6 894.1 220.3 920.6 202.5 C951.2 182.0 981.8 192.6 1012.3 197.5 C1038.8 201.9 1065.3 219.4 1091.7 230.5"/>
    <path d="M498.9 813.5 C509.9 791.5 520.7 769.6 531.7 747.7 C544.7 721.5 557.6 682.6 570.6 669.1 C599.2 639.4 627.9 634.9 656.5 618.0 C673.6 608.0 690.6 603.3 707.7 588.4 C721.3 576.6 735.0 560.2 748.6 537.9 C762.2 515.6 775.9 487.0 789.5 454.6 C806.5 414.0 823.5 350.9 840.6 318.7 C867.1 268.5 893.7 225.9 920.2 207.7 C950.8 186.9 981.4 197.0 1012.0 201.6 C1038.5 205.6 1065.0 222.8 1091.5 233.5"/>
    <path d="M498.0 825.0 C509.0 802.8 519.8 780.8 530.8 758.6 C543.8 732.3 556.7 693.2 569.8 679.5 C598.5 649.3 627.1 644.4 655.8 627.1 C672.9 616.8 689.9 611.8 707.0 596.7 C720.6 584.6 734.4 568.1 748.0 545.6 C761.6 523.1 775.3 494.3 788.9 461.7 C806.0 420.9 823.0 357.5 840.1 325.1 C866.6 274.5 893.2 231.6 919.8 213.0 C950.4 191.7 981.1 201.5 1011.7 205.6 C1038.2 209.3 1064.7 226.1 1091.3 236.6"/>
    <path d="M497.1 836.5 C508.1 814.2 519.0 791.9 530.0 769.6 C543.0 743.0 555.9 703.8 569.0 689.8 C597.7 659.2 626.4 653.9 655.1 636.1 C672.2 625.6 689.3 620.3 706.4 605.0 C720.0 592.7 733.7 576.0 747.4 553.3 C761.0 530.6 774.7 501.6 788.4 468.8 C805.5 427.7 822.5 364.1 839.6 331.4 C866.2 280.5 892.8 237.2 919.4 218.2 C950.1 196.5 980.7 205.9 1011.4 209.6 C1037.9 213.0 1064.5 229.5 1091.0 239.6"/>
    <path d="M496.2 848.0 C507.2 825.5 518.1 803.1 529.1 780.6 C542.1 753.8 555.1 714.4 568.1 700.2 C596.9 669.1 625.7 663.4 654.4 645.2 C671.6 634.4 688.6 628.9 705.7 613.3 C719.4 600.8 733.1 583.9 746.8 561.0 C760.4 538.1 774.2 508.9 787.8 475.9 C804.9 434.6 821.9 370.7 839.1 337.8 C865.7 286.5 892.3 242.8 919.0 223.5 C949.7 201.4 980.4 210.3 1011.1 213.6 C1037.6 216.7 1064.2 232.8 1090.8 242.6"/>
    <path d="M495.3 859.5 C506.3 836.8 517.2 814.3 528.2 791.6 C541.3 764.6 554.3 724.9 567.3 710.6 C596.1 679.1 624.9 672.8 653.7 654.2 C670.9 643.2 687.9 637.4 705.1 621.5 C718.8 608.9 732.5 591.7 746.2 568.6 C759.8 545.6 773.6 516.2 787.2 482.9 C804.4 441.4 821.4 377.3 838.6 344.2 C865.2 292.5 891.9 248.4 918.6 228.7 C949.3 206.2 980.0 214.8 1010.7 217.7 C1037.4 220.4 1064.0 236.2 1090.5 245.7"/>
    <path d="M494.4 871.0 C505.4 848.1 516.3 825.4 527.4 802.6 C540.5 775.4 553.4 735.5 566.5 721.0 C595.4 689.0 624.2 682.3 653.0 663.3 C670.2 652.0 687.3 646.0 704.4 629.8 C718.1 617.0 731.9 599.6 745.6 576.3 C759.2 553.0 773.0 523.5 786.7 490.0 C803.9 448.2 820.9 383.9 838.1 350.5 C864.8 298.5 891.5 254.0 918.1 234.0 C948.9 211.0 979.7 219.2 1010.4 221.7 C1037.1 224.0 1063.7 239.5 1090.3 248.7"/>
    <path d="M493.5 882.5 C504.5 859.5 515.5 836.6 526.5 813.6 C539.6 786.1 552.6 746.1 565.7 731.3 C594.6 698.9 623.4 691.8 652.3 672.3 C669.5 660.8 686.6 654.5 703.8 638.1 C717.5 625.1 731.3 607.5 745.0 584.0 C758.7 560.5 772.5 530.7 786.1 497.1 C803.3 455.1 820.4 390.5 837.6 356.9 C864.3 304.4 891.0 259.6 917.7 239.2 C948.5 215.9 979.3 223.6 1010.1 225.7 C1036.8 227.7 1063.4 242.9 1090.1 251.7"/>
    <path d="M492.6 894.0 C503.7 870.8 514.6 847.7 525.7 824.5 C538.8 796.9 551.8 756.7 564.9 741.7 C593.8 708.9 622.7 701.3 651.6 681.4 C668.8 669.6 685.9 663.0 703.1 646.4 C716.9 633.1 730.7 615.4 744.4 591.7 C758.1 568.0 771.9 538.0 785.6 504.2 C802.8 461.9 819.9 397.1 837.1 363.2 C863.8 310.4 890.6 265.2 917.3 244.5 C948.2 220.7 979.0 228.0 1009.8 229.8 C1036.5 231.4 1063.2 246.2 1089.8 254.7"/>
    <path d="M491.7 905.5 C502.8 882.1 513.7 858.9 524.8 835.5 C537.9 807.7 551.0 767.2 564.1 752.1 C593.0 718.8 621.9 710.8 650.9 690.4 C668.1 678.4 685.3 671.6 702.5 654.7 C716.2 641.2 730.0 623.3 743.8 599.4 C757.5 575.5 771.3 545.3 785.0 511.3 C802.2 468.8 819.4 403.7 836.6 369.6 C863.4 316.4 890.1 270.8 916.9 249.7 C947.8 225.5 978.6 232.5 1009.5 233.8 C1036.2 235.1 1062.9 249.6 1089.6 257.8"/>
    <path d="M490.8 917.0 C501.9 893.4 512.9 870.0 523.9 846.5 C537.1 818.5 550.1 777.8 563.3 762.4 C592.2 728.7 621.2 720.3 650.2 699.5 C667.4 687.2 684.6 680.1 701.8 663.0 C715.6 649.3 729.4 631.1 743.2 607.0 C756.9 583.0 770.7 552.6 784.5 518.4 C801.7 475.6 818.8 410.3 836.1 375.9 C862.9 322.4 889.7 276.5 916.5 255.0 C947.4 230.4 978.3 236.9 1009.2 237.8 C1035.9 238.8 1062.6 253.0 1089.4 260.8"/>
    <path d="M489.9 928.5 C501.0 904.8 512.0 881.2 523.1 857.5 C536.2 829.3 549.3 788.4 562.5 772.8 C591.5 738.6 620.5 729.8 649.5 708.5 C666.7 695.9 683.9 688.6 701.2 671.3 C715.0 657.4 728.8 639.0 742.6 614.7 C756.3 590.4 770.2 559.9 783.9 525.5 C801.2 482.4 818.3 416.9 835.6 382.3 C862.4 328.4 889.3 282.1 916.1 260.2 C947.0 235.2 977.9 241.3 1008.9 241.8 C1035.6 242.5 1062.4 256.3 1089.1 263.8"/>
    <path d="M489.0 940.0 C500.1 916.1 511.1 892.3 522.2 868.5 C535.4 840.0 548.5 799.0 561.6 783.2 C590.7 748.6 619.7 739.3 648.7 717.6 C666.1 704.7 683.3 697.2 700.5 679.5 C714.3 665.5 728.2 646.9 742.0 622.4 C755.7 597.9 769.6 567.1 783.4 532.5 C800.6 489.3 817.8 423.5 835.1 388.6 C862.0 334.3 888.8 287.7 915.7 265.5 C946.6 240.1 977.6 245.8 1008.5 245.9 C1035.3 246.2 1062.1 259.7 1088.9 266.9"/>
    <path d="M488.1 951.5 C499.2 927.4 510.2 903.5 521.4 879.4 C534.6 850.8 547.6 809.6 560.8 793.6 C589.9 758.5 619.0 748.8 648.0 726.6 C665.4 713.5 682.6 705.7 699.9 687.8 C713.7 673.6 727.6 654.8 741.4 630.1 C755.2 605.4 769.0 574.4 782.8 539.6 C800.1 496.1 817.3 430.1 834.6 395.0 C861.5 340.3 888.4 293.3 915.3 270.7 C946.3 244.9 977.3 250.2 1008.2 249.9 C1035.0 249.9 1061.9 263.0 1088.7 269.9"/>
    <path d="M487.2 963.0 C498.3 938.7 509.4 914.6 520.5 890.4 C533.7 861.6 546.8 820.1 560.0 803.9 C589.1 768.4 618.2 758.2 647.3 735.7 C664.7 722.3 681.9 714.3 699.3 696.1 C713.1 681.6 727.0 662.7 740.8 637.8 C754.6 612.9 768.5 581.7 782.3 546.7 C799.6 503.0 816.8 436.7 834.1 401.3 C861.0 346.3 887.9 298.9 914.9 276.0 C945.9 249.7 976.9 254.6 1007.9 253.9 C1034.8 253.6 1061.6 266.4 1088.4 272.9"/>
    <path d="M486.3 974.5 C497.4 950.1 508.5 925.8 519.6 901.4 C532.9 872.4 546.0 830.7 559.2 814.3 C588.4 778.4 617.5 767.7 646.6 744.7 C664.0 731.1 681.2 722.8 698.6 704.4 C712.4 689.7 726.3 670.5 740.2 645.4 C754.0 620.4 767.9 589.0 781.7 553.8 C799.0 509.8 816.3 443.3 833.6 407.7 C860.6 352.3 887.5 304.5 914.4 281.2 C945.5 254.6 976.6 259.0 1007.6 258.0 C1034.5 257.2 1061.3 269.7 1088.2 275.9"/>
    <path d="M485.4 986.0 C496.6 961.4 507.6 937.0 518.8 912.4 C532.0 883.1 545.2 841.3 558.4 824.7 C587.6 788.3 616.8 777.2 645.9 753.8 C663.3 739.9 680.6 731.3 698.0 712.7 C711.8 697.8 725.7 678.4 739.6 653.1 C753.4 627.9 767.3 596.3 781.1 560.9 C798.5 516.6 815.7 449.9 833.1 414.1 C860.1 358.3 887.1 310.1 914.0 286.5 C945.1 259.4 976.2 263.5 1007.3 262.0 C1034.2 260.9 1061.1 273.1 1087.9 279.0"/>
    <path d="M484.5 997.5 C495.7 972.7 506.7 948.1 517.9 923.4 C531.2 893.9 544.3 851.9 557.6 835.1 C586.8 798.2 616.0 786.7 645.2 762.9 C662.6 748.7 679.9 739.9 697.3 721.0 C711.2 705.9 725.1 686.3 739.0 660.8 C752.8 635.3 766.8 603.6 780.6 568.0 C798.0 523.5 815.2 456.5 832.6 420.4 C859.6 364.2 886.6 315.7 913.6 291.7 C944.8 264.2 975.9 267.9 1007.0 266.0 C1033.9 264.6 1060.8 276.4 1087.7 282.0"/>
    <path d="M483.6 1009.0 C494.8 984.0 505.9 959.3 517.1 934.4 C530.3 904.7 543.5 862.4 556.8 845.4 C586.0 808.1 615.3 796.2 644.5 771.9 C661.9 757.5 679.2 748.4 696.7 729.2 C710.5 714.0 724.5 694.2 738.4 668.5 C752.2 642.8 766.2 610.8 780.0 575.0 C797.4 530.3 814.7 463.1 832.1 426.8 C859.1 370.2 886.2 321.4 913.2 297.0 C944.4 269.1 975.5 272.3 1006.6 270.0 C1033.6 268.3 1060.5 279.8 1087.5 285.0"/>
    <path d="M482.7 1020.5 C493.9 995.4 505.0 970.4 516.2 945.3 C529.5 915.5 542.7 873.0 556.0 855.8 C585.2 818.1 614.5 805.7 643.8 781.0 C661.2 766.3 678.6 757.0 696.0 737.5 C709.9 722.1 723.9 702.1 737.8 676.2 C751.6 650.3 765.6 618.1 779.5 582.1 C796.9 537.1 814.2 469.7 831.6 433.1 C858.7 376.2 885.7 327.0 912.8 302.2 C944.0 273.9 975.2 276.8 1006.3 274.1 C1033.3 272.0 1060.3 283.2 1087.2 288.1"/>
    <path d="M481.8 1032.0 C493.0 1006.7 504.1 981.6 515.3 956.3 C528.6 926.3 541.8 883.6 555.2 866.2 C584.5 828.0 613.8 815.2 643.1 790.0 C660.5 775.1 677.9 765.5 695.4 745.8 C709.3 730.1 723.3 709.9 737.2 683.8 C751.1 657.8 765.0 625.4 778.9 589.2 C796.4 544.0 813.7 476.3 831.1 439.5 C858.2 382.2 885.3 332.6 912.4 307.5 C943.6 278.7 974.8 281.2 1006.0 278.1 C1033.0 275.7 1060.0 286.5 1087.0 291.1"/>
    <path d="M480.9 1043.5 C492.1 1018.0 503.3 992.7 514.5 967.3 C527.8 937.0 541.0 894.2 554.3 876.6 C583.7 837.9 613.0 824.7 642.4 799.1 C659.9 783.9 677.2 774.0 694.7 754.1 C708.6 738.2 722.6 717.8 736.6 691.5 C750.5 665.3 764.5 632.7 778.4 596.3 C795.8 550.8 813.2 482.9 830.6 445.8 C857.7 388.2 884.9 338.2 912.0 312.7 C943.2 283.6 974.5 285.6 1005.7 282.1 C1032.7 279.4 1059.8 289.9 1086.8 294.1"/>
    <path d="M480.0 1055.0 C491.2 1029.4 502.4 1003.9 513.6 978.3 C527.0 947.8 540.2 904.7 553.5 886.9 C582.9 847.9 612.3 834.2 641.7 808.1 C659.2 792.7 676.6 782.6 694.1 762.4 C708.0 746.3 722.0 725.7 736.0 699.2 C749.9 672.7 763.9 640.0 777.8 603.4 C795.3 557.7 812.6 489.5 830.1 452.2 C857.3 394.2 884.4 343.8 911.6 318.0 C942.9 288.4 974.1 290.0 1005.4 286.2 C1032.5 283.1 1059.5 293.2 1086.5 297.1"/>
    <path d="M479.1 1066.5 C490.4 1040.7 501.5 1015.0 512.8 989.3 C526.1 958.6 539.4 915.3 552.7 897.3 C582.1 857.8 611.6 843.6 641.0 817.2 C658.5 801.5 675.9 791.1 693.4 770.7 C707.4 754.4 721.4 733.6 735.4 706.9 C749.3 680.2 763.3 647.2 777.3 610.5 C794.8 564.5 812.1 496.1 829.6 458.5 C856.8 400.1 884.0 349.4 911.2 323.2 C942.5 293.2 973.8 294.5 1005.1 290.2 C1032.2 286.8 1059.2 296.6 1086.3 300.2"/>
    <path d="M478.2 1078.0 C489.5 1052.0 500.6 1026.2 511.9 1000.2 C525.3 969.4 538.5 925.9 551.9 907.7 C581.4 867.7 610.8 853.1 640.2 826.2 C657.8 810.3 675.2 799.7 692.8 779.0 C706.7 762.5 720.8 741.5 734.8 714.6 C748.7 687.7 762.8 654.5 776.7 617.6 C794.2 571.3 811.6 502.7 829.1 464.9 C856.3 406.1 883.6 355.0 910.7 328.4 C942.1 298.1 973.4 298.9 1004.8 294.2 C1031.9 290.5 1059.0 299.9 1086.0 303.2"/>
    <path d="M477.3 1089.5 C488.6 1063.3 499.8 1037.4 511.0 1011.2 C524.4 980.1 537.7 936.5 551.1 918.0 C580.6 877.7 610.1 862.6 639.5 835.3 C657.1 819.1 674.6 808.2 692.1 787.2 C706.1 770.5 720.2 749.3 734.2 722.2 C748.1 695.2 762.2 661.8 776.2 624.6 C793.7 578.2 811.1 509.3 828.6 471.2 C855.9 412.1 883.1 360.6 910.3 333.7 C941.7 302.9 973.1 303.3 1004.4 298.3 C1031.6 294.1 1058.7 303.3 1085.8 306.2"/>
    <path d="M476.4 1101.0 C487.7 1074.7 498.9 1048.5 510.2 1022.2 C523.6 990.9 536.9 947.0 550.3 928.4 C579.8 887.6 609.3 872.1 638.8 844.3 C656.4 827.9 673.9 816.7 691.5 795.5 C705.5 778.6 719.6 757.2 733.6 729.9 C747.5 702.7 761.6 669.1 775.6 631.7 C793.1 585.0 810.6 515.9 828.1 477.6 C855.4 418.1 882.7 366.3 909.9 338.9 C941.4 307.7 972.8 307.8 1004.1 302.3 C1031.3 297.8 1058.4 306.6 1085.6 309.3"/>
  </g>
</svg>
